<svg xmlns="http://www.w3.org/2000/svg" style="cursor: move; touch-action: none;" width="2144" height="1059"><g transform="translate(-514.8121190430065,-286.9583124966541) scale(1.5669943738986813)"><path class="link" style="stroke-width: 0.5px; stroke-opacity: 1; stroke: rgb(172, 172, 172); fill: none;" marker-end="" d="M912,219.5, 1092,339.5"></path><path class="link" style="stroke-width: 0.5px; stroke-opacity: 1; stroke: rgb(172, 172, 172); fill: none;" marker-end="" d="M912,219.5, 1092,379.5"></path><path class="link" style="stroke-width: 0.5px; stroke-opacity: 1; stroke: rgb(172, 172, 172); fill: none;" marker-end="" d="M912,219.5, 1092,419.5"></path><path class="link" style="stroke-width: 0.5px; stroke-opacity: 1; stroke: rgb(172, 172, 172); fill: none;" marker-end="" d="M912,219.5, 1092,459.5"></path><path class="link" style="stroke-width: 0.5px; stroke-opacity: 1; stroke: rgb(172, 172, 172); fill: none;" marker-end="" d="M912,219.5, 1092,499.5"></path><path class="link" style="stroke-width: 0.5px; stroke-opacity: 1; stroke: rgb(172, 172, 172); fill: none;" marker-end="" d="M912,219.5, 1092,539.5"></path><path class="link" style="stroke-width: 0.5px; stroke-opacity: 1; stroke: rgb(172, 172, 172); fill: none;" marker-end="" d="M912,219.5, 1092,579.5"></path><path class="link" style="stroke-width: 0.5px; stroke-opacity: 1; stroke: rgb(172, 172, 172); fill: none;" marker-end="" d="M912,219.5, 1092,619.5"></path><path class="link" style="stroke-width: 0.5px; stroke-opacity: 1; stroke: rgb(172, 172, 172); fill: none;" marker-end="" d="M912,219.5, 1092,659.5"></path><path class="link" style="stroke-width: 0.5px; stroke-opacity: 1; stroke: rgb(172, 172, 172); fill: none;" marker-end="" d="M912,219.5, 1092,699.5"></path><path class="link" style="stroke-width: 0.5px; stroke-opacity: 1; stroke: rgb(172, 172, 172); fill: none;" marker-end="" d="M912,259.5, 1092,339.5"></path><path class="link" style="stroke-width: 0.5px; stroke-opacity: 1; stroke: rgb(172, 172, 172); fill: none;" marker-end="" d="M912,259.5, 1092,379.5"></path><path class="link" style="stroke-width: 0.5px; stroke-opacity: 1; stroke: rgb(172, 172, 172); fill: none;" marker-end="" d="M912,259.5, 1092,419.5"></path><path class="link" style="stroke-width: 0.5px; stroke-opacity: 1; stroke: rgb(172, 172, 172); fill: none;" marker-end="" d="M912,259.5, 1092,459.5"></path><path class="link" style="stroke-width: 0.5px; stroke-opacity: 1; stroke: rgb(172, 172, 172); fill: none;" marker-end="" d="M912,259.5, 1092,499.5"></path><path class="link" style="stroke-width: 0.5px; stroke-opacity: 1; stroke: rgb(172, 172, 172); fill: none;" marker-end="" d="M912,259.5, 1092,539.5"></path><path class="link" style="stroke-width: 0.5px; stroke-opacity: 1; stroke: rgb(172, 172, 172); fill: none;" marker-end="" d="M912,259.5, 1092,579.5"></path><path class="link" style="stroke-width: 0.5px; stroke-opacity: 1; stroke: rgb(172, 172, 172); fill: none;" marker-end="" d="M912,259.5, 1092,619.5"></path><path class="link" style="stroke-width: 0.5px; stroke-opacity: 1; stroke: rgb(172, 172, 172); fill: none;" marker-end="" d="M912,259.5, 1092,659.5"></path><path class="link" style="stroke-width: 0.5px; stroke-opacity: 1; stroke: rgb(172, 172, 172); fill: none;" marker-end="" d="M912,259.5, 1092,699.5"></path><path class="link" style="stroke-width: 0.5px; stroke-opacity: 1; stroke: rgb(172, 172, 172); fill: none;" marker-end="" d="M912,299.5, 1092,339.5"></path><path class="link" style="stroke-width: 0.5px; stroke-opacity: 1; stroke: rgb(172, 172, 172); fill: none;" marker-end="" d="M912,299.5, 1092,379.5"></path><path class="link" style="stroke-width: 0.5px; stroke-opacity: 1; stroke: rgb(172, 172, 172); fill: none;" marker-end="" d="M912,299.5, 1092,419.5"></path><path class="link" style="stroke-width: 0.5px; stroke-opacity: 1; stroke: rgb(172, 172, 172); fill: none;" marker-end="" d="M912,299.5, 1092,459.5"></path><path class="link" style="stroke-width: 0.5px; stroke-opacity: 1; stroke: rgb(172, 172, 172); fill: none;" marker-end="" d="M912,299.5, 1092,499.5"></path><path class="link" style="stroke-width: 0.5px; stroke-opacity: 1; stroke: rgb(172, 172, 172); fill: none;" marker-end="" d="M912,299.5, 1092,539.5"></path><path class="link" style="stroke-width: 0.5px; stroke-opacity: 1; stroke: rgb(172, 172, 172); fill: none;" marker-end="" d="M912,299.5, 1092,579.5"></path><path class="link" style="stroke-width: 0.5px; stroke-opacity: 1; stroke: rgb(172, 172, 172); fill: none;" marker-end="" d="M912,299.5, 1092,619.5"></path><path class="link" style="stroke-width: 0.5px; stroke-opacity: 1; stroke: rgb(172, 172, 172); fill: none;" marker-end="" d="M912,299.5, 1092,659.5"></path><path class="link" style="stroke-width: 0.5px; stroke-opacity: 1; stroke: rgb(172, 172, 172); fill: none;" marker-end="" d="M912,299.5, 1092,699.5"></path><path class="link" style="stroke-width: 0.5px; stroke-opacity: 1; stroke: rgb(172, 172, 172); fill: none;" marker-end="" d="M912,339.5, 1092,339.5"></path><path class="link" style="stroke-width: 0.5px; stroke-opacity: 1; stroke: rgb(172, 172, 172); fill: none;" marker-end="" d="M912,339.5, 1092,379.5"></path><path class="link" style="stroke-width: 0.5px; stroke-opacity: 1; stroke: rgb(172, 172, 172); fill: none;" marker-end="" d="M912,339.5, 1092,419.5"></path><path class="link" style="stroke-width: 0.5px; stroke-opacity: 1; stroke: rgb(172, 172, 172); fill: none;" marker-end="" d="M912,339.5, 1092,459.5"></path><path class="link" style="stroke-width: 0.5px; stroke-opacity: 1; stroke: rgb(172, 172, 172); fill: none;" marker-end="" d="M912,339.5, 1092,499.5"></path><path class="link" style="stroke-width: 0.5px; stroke-opacity: 1; stroke: rgb(172, 172, 172); fill: none;" marker-end="" d="M912,339.5, 1092,539.5"></path><path class="link" style="stroke-width: 0.5px; stroke-opacity: 1; stroke: rgb(172, 172, 172); fill: none;" marker-end="" d="M912,339.5, 1092,579.5"></path><path class="link" style="stroke-width: 0.5px; stroke-opacity: 1; stroke: rgb(172, 172, 172); fill: none;" marker-end="" d="M912,339.5, 1092,619.5"></path><path class="link" style="stroke-width: 0.5px; stroke-opacity: 1; stroke: rgb(172, 172, 172); fill: none;" marker-end="" d="M912,339.5, 1092,659.5"></path><path class="link" style="stroke-width: 0.5px; stroke-opacity: 1; stroke: rgb(172, 172, 172); fill: none;" marker-end="" d="M912,339.5, 1092,699.5"></path><path class="link" style="stroke-width: 0.5px; stroke-opacity: 1; stroke: rgb(172, 172, 172); fill: none;" marker-end="" d="M912,379.5, 1092,339.5"></path><path class="link" style="stroke-width: 0.5px; stroke-opacity: 1; stroke: rgb(172, 172, 172); fill: none;" marker-end="" d="M912,379.5, 1092,379.5"></path><path class="link" style="stroke-width: 0.5px; stroke-opacity: 1; stroke: rgb(172, 172, 172); fill: none;" marker-end="" d="M912,379.5, 1092,419.5"></path><path class="link" style="stroke-width: 0.5px; stroke-opacity: 1; stroke: rgb(172, 172, 172); fill: none;" marker-end="" d="M912,379.5, 1092,459.5"></path><path class="link" style="stroke-width: 0.5px; stroke-opacity: 1; stroke: rgb(172, 172, 172); fill: none;" marker-end="" d="M912,379.5, 1092,499.5"></path><path class="link" style="stroke-width: 0.5px; stroke-opacity: 1; stroke: rgb(172, 172, 172); fill: none;" marker-end="" d="M912,379.5, 1092,539.5"></path><path class="link" style="stroke-width: 0.5px; stroke-opacity: 1; stroke: rgb(172, 172, 172); fill: none;" marker-end="" d="M912,379.5, 1092,579.5"></path><path class="link" style="stroke-width: 0.5px; stroke-opacity: 1; stroke: rgb(172, 172, 172); fill: none;" marker-end="" d="M912,379.5, 1092,619.5"></path><path class="link" style="stroke-width: 0.5px; stroke-opacity: 1; stroke: rgb(172, 172, 172); fill: none;" marker-end="" d="M912,379.5, 1092,659.5"></path><path class="link" style="stroke-width: 0.5px; stroke-opacity: 1; stroke: rgb(172, 172, 172); fill: none;" marker-end="" d="M912,379.5, 1092,699.5"></path><path class="link" style="stroke-width: 0.5px; stroke-opacity: 1; stroke: rgb(172, 172, 172); fill: none;" marker-end="" d="M912,419.5, 1092,339.5"></path><path class="link" style="stroke-width: 0.5px; stroke-opacity: 1; stroke: rgb(172, 172, 172); fill: none;" marker-end="" d="M912,419.5, 1092,379.5"></path><path class="link" style="stroke-width: 0.5px; stroke-opacity: 1; stroke: rgb(172, 172, 172); fill: none;" marker-end="" d="M912,419.5, 1092,419.5"></path><path class="link" style="stroke-width: 0.5px; stroke-opacity: 1; stroke: rgb(172, 172, 172); fill: none;" marker-end="" d="M912,419.5, 1092,459.5"></path><path class="link" style="stroke-width: 0.5px; stroke-opacity: 1; stroke: rgb(172, 172, 172); fill: none;" marker-end="" d="M912,419.5, 1092,499.5"></path><path class="link" style="stroke-width: 0.5px; stroke-opacity: 1; stroke: rgb(172, 172, 172); fill: none;" marker-end="" d="M912,419.5, 1092,539.5"></path><path class="link" style="stroke-width: 0.5px; stroke-opacity: 1; stroke: rgb(172, 172, 172); fill: none;" marker-end="" d="M912,419.5, 1092,579.5"></path><path class="link" style="stroke-width: 0.5px; stroke-opacity: 1; stroke: rgb(172, 172, 172); fill: none;" marker-end="" d="M912,419.5, 1092,619.5"></path><path class="link" style="stroke-width: 0.5px; stroke-opacity: 1; stroke: rgb(172, 172, 172); fill: none;" marker-end="" d="M912,419.5, 1092,659.5"></path><path class="link" style="stroke-width: 0.5px; stroke-opacity: 1; stroke: rgb(172, 172, 172); fill: none;" marker-end="" d="M912,419.5, 1092,699.5"></path><path class="link" style="stroke-width: 0.5px; stroke-opacity: 1; stroke: rgb(172, 172, 172); fill: none;" marker-end="" d="M912,459.5, 1092,339.5"></path><path class="link" style="stroke-width: 0.5px; stroke-opacity: 1; stroke: rgb(172, 172, 172); fill: none;" marker-end="" d="M912,459.5, 1092,379.5"></path><path class="link" style="stroke-width: 0.5px; stroke-opacity: 1; stroke: rgb(172, 172, 172); fill: none;" marker-end="" d="M912,459.5, 1092,419.5"></path><path class="link" style="stroke-width: 0.5px; stroke-opacity: 1; stroke: rgb(172, 172, 172); fill: none;" marker-end="" d="M912,459.5, 1092,459.5"></path><path class="link" style="stroke-width: 0.5px; stroke-opacity: 1; stroke: rgb(172, 172, 172); fill: none;" marker-end="" d="M912,459.5, 1092,499.5"></path><path class="link" style="stroke-width: 0.5px; stroke-opacity: 1; stroke: rgb(172, 172, 172); fill: none;" marker-end="" d="M912,459.5, 1092,539.5"></path><path class="link" style="stroke-width: 0.5px; stroke-opacity: 1; stroke: rgb(172, 172, 172); fill: none;" marker-end="" d="M912,459.5, 1092,579.5"></path><path class="link" style="stroke-width: 0.5px; stroke-opacity: 1; stroke: rgb(172, 172, 172); fill: none;" marker-end="" d="M912,459.5, 1092,619.5"></path><path class="link" style="stroke-width: 0.5px; stroke-opacity: 1; stroke: rgb(172, 172, 172); fill: none;" marker-end="" d="M912,459.5, 1092,659.5"></path><path class="link" style="stroke-width: 0.5px; stroke-opacity: 1; stroke: rgb(172, 172, 172); fill: none;" marker-end="" d="M912,459.5, 1092,699.5"></path><path class="link" style="stroke-width: 0.5px; stroke-opacity: 1; stroke: rgb(172, 172, 172); fill: none;" marker-end="" d="M912,499.5, 1092,339.5"></path><path class="link" style="stroke-width: 0.5px; stroke-opacity: 1; stroke: rgb(172, 172, 172); fill: none;" marker-end="" d="M912,499.5, 1092,379.5"></path><path class="link" style="stroke-width: 0.5px; stroke-opacity: 1; stroke: rgb(172, 172, 172); fill: none;" marker-end="" d="M912,499.5, 1092,419.5"></path><path class="link" style="stroke-width: 0.5px; stroke-opacity: 1; stroke: rgb(172, 172, 172); fill: none;" marker-end="" d="M912,499.5, 1092,459.5"></path><path class="link" style="stroke-width: 0.5px; stroke-opacity: 1; stroke: rgb(172, 172, 172); fill: none;" marker-end="" d="M912,499.5, 1092,499.5"></path><path class="link" style="stroke-width: 0.5px; stroke-opacity: 1; stroke: rgb(172, 172, 172); fill: none;" marker-end="" d="M912,499.5, 1092,539.5"></path><path class="link" style="stroke-width: 0.5px; stroke-opacity: 1; stroke: rgb(172, 172, 172); fill: none;" marker-end="" d="M912,499.5, 1092,579.5"></path><path class="link" style="stroke-width: 0.5px; stroke-opacity: 1; stroke: rgb(172, 172, 172); fill: none;" marker-end="" d="M912,499.5, 1092,619.5"></path><path class="link" style="stroke-width: 0.5px; stroke-opacity: 1; stroke: rgb(172, 172, 172); fill: none;" marker-end="" d="M912,499.5, 1092,659.5"></path><path class="link" style="stroke-width: 0.5px; stroke-opacity: 1; stroke: rgb(172, 172, 172); fill: none;" marker-end="" d="M912,499.5, 1092,699.5"></path><path class="link" style="stroke-width: 0.5px; stroke-opacity: 1; stroke: rgb(172, 172, 172); fill: none;" marker-end="" d="M912,539.5, 1092,339.5"></path><path class="link" style="stroke-width: 0.5px; stroke-opacity: 1; stroke: rgb(172, 172, 172); fill: none;" marker-end="" d="M912,539.5, 1092,379.5"></path><path class="link" style="stroke-width: 0.5px; stroke-opacity: 1; stroke: rgb(172, 172, 172); fill: none;" marker-end="" d="M912,539.5, 1092,419.5"></path><path class="link" style="stroke-width: 0.5px; stroke-opacity: 1; stroke: rgb(172, 172, 172); fill: none;" marker-end="" d="M912,539.5, 1092,459.5"></path><path class="link" style="stroke-width: 0.5px; stroke-opacity: 1; stroke: rgb(172, 172, 172); fill: none;" marker-end="" d="M912,539.5, 1092,499.5"></path><path class="link" style="stroke-width: 0.5px; stroke-opacity: 1; stroke: rgb(172, 172, 172); fill: none;" marker-end="" d="M912,539.5, 1092,539.5"></path><path class="link" style="stroke-width: 0.5px; stroke-opacity: 1; stroke: rgb(172, 172, 172); fill: none;" marker-end="" d="M912,539.5, 1092,579.5"></path><path class="link" style="stroke-width: 0.5px; stroke-opacity: 1; stroke: rgb(172, 172, 172); fill: none;" marker-end="" d="M912,539.5, 1092,619.5"></path><path class="link" style="stroke-width: 0.5px; stroke-opacity: 1; stroke: rgb(172, 172, 172); fill: none;" marker-end="" d="M912,539.5, 1092,659.5"></path><path class="link" style="stroke-width: 0.5px; stroke-opacity: 1; stroke: rgb(172, 172, 172); fill: none;" marker-end="" d="M912,539.5, 1092,699.5"></path><path class="link" style="stroke-width: 0.5px; stroke-opacity: 1; stroke: rgb(172, 172, 172); fill: none;" marker-end="" d="M912,579.5, 1092,339.5"></path><path class="link" style="stroke-width: 0.5px; stroke-opacity: 1; stroke: rgb(172, 172, 172); fill: none;" marker-end="" d="M912,579.5, 1092,379.5"></path><path class="link" style="stroke-width: 0.5px; stroke-opacity: 1; stroke: rgb(172, 172, 172); fill: none;" marker-end="" d="M912,579.5, 1092,419.5"></path><path class="link" style="stroke-width: 0.5px; stroke-opacity: 1; stroke: rgb(172, 172, 172); fill: none;" marker-end="" d="M912,579.5, 1092,459.5"></path><path class="link" style="stroke-width: 0.5px; stroke-opacity: 1; stroke: rgb(172, 172, 172); fill: none;" marker-end="" d="M912,579.5, 1092,499.5"></path><path class="link" style="stroke-width: 0.5px; stroke-opacity: 1; stroke: rgb(172, 172, 172); fill: none;" marker-end="" d="M912,579.5, 1092,539.5"></path><path class="link" style="stroke-width: 0.5px; stroke-opacity: 1; stroke: rgb(172, 172, 172); fill: none;" marker-end="" d="M912,579.5, 1092,579.5"></path><path class="link" style="stroke-width: 0.5px; stroke-opacity: 1; stroke: rgb(172, 172, 172); fill: none;" marker-end="" d="M912,579.5, 1092,619.5"></path><path class="link" style="stroke-width: 0.5px; stroke-opacity: 1; stroke: rgb(172, 172, 172); fill: none;" marker-end="" d="M912,579.5, 1092,659.5"></path><path class="link" style="stroke-width: 0.5px; stroke-opacity: 1; stroke: rgb(172, 172, 172); fill: none;" marker-end="" d="M912,579.5, 1092,699.5"></path><path class="link" style="stroke-width: 0.5px; stroke-opacity: 1; stroke: rgb(172, 172, 172); fill: none;" marker-end="" d="M912,619.5, 1092,339.5"></path><path class="link" style="stroke-width: 0.5px; stroke-opacity: 1; stroke: rgb(172, 172, 172); fill: none;" marker-end="" d="M912,619.5, 1092,379.5"></path><path class="link" style="stroke-width: 0.5px; stroke-opacity: 1; stroke: rgb(172, 172, 172); fill: none;" marker-end="" d="M912,619.5, 1092,419.5"></path><path class="link" style="stroke-width: 0.5px; stroke-opacity: 1; stroke: rgb(172, 172, 172); fill: none;" marker-end="" d="M912,619.5, 1092,459.5"></path><path class="link" style="stroke-width: 0.5px; stroke-opacity: 1; stroke: rgb(172, 172, 172); fill: none;" marker-end="" d="M912,619.5, 1092,499.5"></path><path class="link" style="stroke-width: 0.5px; stroke-opacity: 1; stroke: rgb(172, 172, 172); fill: none;" marker-end="" d="M912,619.5, 1092,539.5"></path><path class="link" style="stroke-width: 0.5px; stroke-opacity: 1; stroke: rgb(172, 172, 172); fill: none;" marker-end="" d="M912,619.5, 1092,579.5"></path><path class="link" style="stroke-width: 0.5px; stroke-opacity: 1; stroke: rgb(172, 172, 172); fill: none;" marker-end="" d="M912,619.5, 1092,619.5"></path><path class="link" style="stroke-width: 0.5px; stroke-opacity: 1; stroke: rgb(172, 172, 172); fill: none;" marker-end="" d="M912,619.5, 1092,659.5"></path><path class="link" style="stroke-width: 0.5px; stroke-opacity: 1; stroke: rgb(172, 172, 172); fill: none;" marker-end="" d="M912,619.5, 1092,699.5"></path><path class="link" style="stroke-width: 0.5px; stroke-opacity: 1; stroke: rgb(172, 172, 172); fill: none;" marker-end="" d="M912,659.5, 1092,339.5"></path><path class="link" style="stroke-width: 0.5px; stroke-opacity: 1; stroke: rgb(172, 172, 172); fill: none;" marker-end="" d="M912,659.5, 1092,379.5"></path><path class="link" style="stroke-width: 0.5px; stroke-opacity: 1; stroke: rgb(172, 172, 172); fill: none;" marker-end="" d="M912,659.5, 1092,419.5"></path><path class="link" style="stroke-width: 0.5px; stroke-opacity: 1; stroke: rgb(172, 172, 172); fill: none;" marker-end="" d="M912,659.5, 1092,459.5"></path><path class="link" style="stroke-width: 0.5px; stroke-opacity: 1; stroke: rgb(172, 172, 172); fill: none;" marker-end="" d="M912,659.5, 1092,499.5"></path><path class="link" style="stroke-width: 0.5px; stroke-opacity: 1; stroke: rgb(172, 172, 172); fill: none;" marker-end="" d="M912,659.5, 1092,539.5"></path><path class="link" style="stroke-width: 0.5px; stroke-opacity: 1; stroke: rgb(172, 172, 172); fill: none;" marker-end="" d="M912,659.5, 1092,579.5"></path><path class="link" style="stroke-width: 0.5px; stroke-opacity: 1; stroke: rgb(172, 172, 172); fill: none;" marker-end="" d="M912,659.5, 1092,619.5"></path><path class="link" style="stroke-width: 0.5px; stroke-opacity: 1; stroke: rgb(172, 172, 172); fill: none;" marker-end="" d="M912,659.5, 1092,659.5"></path><path class="link" style="stroke-width: 0.5px; stroke-opacity: 1; stroke: rgb(172, 172, 172); fill: none;" marker-end="" d="M912,659.5, 1092,699.5"></path><path class="link" style="stroke-width: 0.5px; stroke-opacity: 1; stroke: rgb(172, 172, 172); fill: none;" marker-end="" d="M912,699.5, 1092,339.5"></path><path class="link" style="stroke-width: 0.5px; stroke-opacity: 1; stroke: rgb(172, 172, 172); fill: none;" marker-end="" d="M912,699.5, 1092,379.5"></path><path class="link" style="stroke-width: 0.5px; stroke-opacity: 1; stroke: rgb(172, 172, 172); fill: none;" marker-end="" d="M912,699.5, 1092,419.5"></path><path class="link" style="stroke-width: 0.5px; stroke-opacity: 1; stroke: rgb(172, 172, 172); fill: none;" marker-end="" d="M912,699.5, 1092,459.5"></path><path class="link" style="stroke-width: 0.5px; stroke-opacity: 1; stroke: rgb(172, 172, 172); fill: none;" marker-end="" d="M912,699.5, 1092,499.5"></path><path class="link" style="stroke-width: 0.5px; stroke-opacity: 1; stroke: rgb(172, 172, 172); fill: none;" marker-end="" d="M912,699.5, 1092,539.5"></path><path class="link" style="stroke-width: 0.5px; stroke-opacity: 1; stroke: rgb(172, 172, 172); fill: none;" marker-end="" d="M912,699.5, 1092,579.5"></path><path class="link" style="stroke-width: 0.5px; stroke-opacity: 1; stroke: rgb(172, 172, 172); fill: none;" marker-end="" d="M912,699.5, 1092,619.5"></path><path class="link" style="stroke-width: 0.5px; stroke-opacity: 1; stroke: rgb(172, 172, 172); fill: none;" marker-end="" d="M912,699.5, 1092,659.5"></path><path class="link" style="stroke-width: 0.5px; stroke-opacity: 1; stroke: rgb(172, 172, 172); fill: none;" marker-end="" d="M912,699.5, 1092,699.5"></path><path class="link" style="stroke-width: 0.5px; stroke-opacity: 1; stroke: rgb(172, 172, 172); fill: none;" marker-end="" d="M912,739.5, 1092,339.5"></path><path class="link" style="stroke-width: 0.5px; stroke-opacity: 1; stroke: rgb(172, 172, 172); fill: none;" marker-end="" d="M912,739.5, 1092,379.5"></path><path class="link" style="stroke-width: 0.5px; stroke-opacity: 1; stroke: rgb(172, 172, 172); fill: none;" marker-end="" d="M912,739.5, 1092,419.5"></path><path class="link" style="stroke-width: 0.5px; stroke-opacity: 1; stroke: rgb(172, 172, 172); fill: none;" marker-end="" d="M912,739.5, 1092,459.5"></path><path class="link" style="stroke-width: 0.5px; stroke-opacity: 1; stroke: rgb(172, 172, 172); fill: none;" marker-end="" d="M912,739.5, 1092,499.5"></path><path class="link" style="stroke-width: 0.5px; stroke-opacity: 1; stroke: rgb(172, 172, 172); fill: none;" marker-end="" d="M912,739.5, 1092,539.5"></path><path class="link" style="stroke-width: 0.5px; stroke-opacity: 1; stroke: rgb(172, 172, 172); fill: none;" marker-end="" d="M912,739.5, 1092,579.5"></path><path class="link" style="stroke-width: 0.5px; stroke-opacity: 1; stroke: rgb(172, 172, 172); fill: none;" marker-end="" d="M912,739.5, 1092,619.5"></path><path class="link" style="stroke-width: 0.5px; stroke-opacity: 1; stroke: rgb(172, 172, 172); fill: none;" marker-end="" d="M912,739.5, 1092,659.5"></path><path class="link" style="stroke-width: 0.5px; stroke-opacity: 1; stroke: rgb(172, 172, 172); fill: none;" marker-end="" d="M912,739.5, 1092,699.5"></path><path class="link" style="stroke-width: 0.5px; stroke-opacity: 1; stroke: rgb(172, 172, 172); fill: none;" marker-end="" d="M912,779.5, 1092,339.5"></path><path class="link" style="stroke-width: 0.5px; stroke-opacity: 1; stroke: rgb(172, 172, 172); fill: none;" marker-end="" d="M912,779.5, 1092,379.5"></path><path class="link" style="stroke-width: 0.5px; stroke-opacity: 1; stroke: rgb(172, 172, 172); fill: none;" marker-end="" d="M912,779.5, 1092,419.5"></path><path class="link" style="stroke-width: 0.5px; stroke-opacity: 1; stroke: rgb(172, 172, 172); fill: none;" marker-end="" d="M912,779.5, 1092,459.5"></path><path class="link" style="stroke-width: 0.5px; stroke-opacity: 1; stroke: rgb(172, 172, 172); fill: none;" marker-end="" d="M912,779.5, 1092,499.5"></path><path class="link" style="stroke-width: 0.5px; stroke-opacity: 1; stroke: rgb(172, 172, 172); fill: none;" marker-end="" d="M912,779.5, 1092,539.5"></path><path class="link" style="stroke-width: 0.5px; stroke-opacity: 1; stroke: rgb(172, 172, 172); fill: none;" marker-end="" d="M912,779.5, 1092,579.5"></path><path class="link" style="stroke-width: 0.5px; stroke-opacity: 1; stroke: rgb(172, 172, 172); fill: none;" marker-end="" d="M912,779.5, 1092,619.5"></path><path class="link" style="stroke-width: 0.5px; stroke-opacity: 1; stroke: rgb(172, 172, 172); fill: none;" marker-end="" d="M912,779.5, 1092,659.5"></path><path class="link" style="stroke-width: 0.5px; stroke-opacity: 1; stroke: rgb(172, 172, 172); fill: none;" marker-end="" d="M912,779.5, 1092,699.5"></path><path class="link" style="stroke-width: 0.5px; stroke-opacity: 1; stroke: rgb(172, 172, 172); fill: none;" marker-end="" d="M912,819.5, 1092,339.5"></path><path class="link" style="stroke-width: 0.5px; stroke-opacity: 1; stroke: rgb(172, 172, 172); fill: none;" marker-end="" d="M912,819.5, 1092,379.5"></path><path class="link" style="stroke-width: 0.5px; stroke-opacity: 1; stroke: rgb(172, 172, 172); fill: none;" marker-end="" d="M912,819.5, 1092,419.5"></path><path class="link" style="stroke-width: 0.5px; stroke-opacity: 1; stroke: rgb(172, 172, 172); fill: none;" marker-end="" d="M912,819.5, 1092,459.5"></path><path class="link" style="stroke-width: 0.5px; stroke-opacity: 1; stroke: rgb(172, 172, 172); fill: none;" marker-end="" d="M912,819.5, 1092,499.5"></path><path class="link" style="stroke-width: 0.5px; stroke-opacity: 1; stroke: rgb(172, 172, 172); fill: none;" marker-end="" d="M912,819.5, 1092,539.5"></path><path class="link" style="stroke-width: 0.5px; stroke-opacity: 1; stroke: rgb(172, 172, 172); fill: none;" marker-end="" d="M912,819.5, 1092,579.5"></path><path class="link" style="stroke-width: 0.5px; stroke-opacity: 1; stroke: rgb(172, 172, 172); fill: none;" marker-end="" d="M912,819.5, 1092,619.5"></path><path class="link" style="stroke-width: 0.5px; stroke-opacity: 1; stroke: rgb(172, 172, 172); fill: none;" marker-end="" d="M912,819.5, 1092,659.5"></path><path class="link" style="stroke-width: 0.5px; stroke-opacity: 1; stroke: rgb(172, 172, 172); fill: none;" marker-end="" d="M912,819.5, 1092,699.5"></path><path class="link" style="stroke-width: 0.5px; stroke-opacity: 1; stroke: rgb(172, 172, 172); fill: none;" marker-end="" d="M1092,339.5, 1272,479.5"></path><path class="link" style="stroke-width: 0.5px; stroke-opacity: 1; stroke: rgb(172, 172, 172); fill: none;" marker-end="" d="M1092,379.5, 1272,479.5"></path><path class="link" style="stroke-width: 0.5px; stroke-opacity: 1; stroke: rgb(172, 172, 172); fill: none;" marker-end="" d="M1092,419.5, 1272,479.5"></path><path class="link" style="stroke-width: 0.5px; stroke-opacity: 1; stroke: rgb(172, 172, 172); fill: none;" marker-end="" d="M1092,459.5, 1272,479.5"></path><path class="link" style="stroke-width: 0.5px; stroke-opacity: 1; stroke: rgb(172, 172, 172); fill: none;" marker-end="" d="M1092,499.5, 1272,479.5"></path><path class="link" style="stroke-width: 0.5px; stroke-opacity: 1; stroke: rgb(172, 172, 172); fill: none;" marker-end="" d="M1092,539.5, 1272,479.5"></path><path class="link" style="stroke-width: 0.5px; stroke-opacity: 1; stroke: rgb(172, 172, 172); fill: none;" marker-end="" d="M1092,579.5, 1272,479.5"></path><path class="link" style="stroke-width: 0.5px; stroke-opacity: 1; stroke: rgb(172, 172, 172); fill: none;" marker-end="" d="M1092,619.5, 1272,479.5"></path><path class="link" style="stroke-width: 0.5px; stroke-opacity: 1; stroke: rgb(172, 172, 172); fill: none;" marker-end="" d="M1092,659.5, 1272,479.5"></path><path class="link" style="stroke-width: 0.5px; stroke-opacity: 1; stroke: rgb(172, 172, 172); fill: none;" marker-end="" d="M1092,699.5, 1272,479.5"></path><path class="link" style="stroke-width: 0.5px; stroke-opacity: 1; stroke: rgb(172, 172, 172); fill: none;" marker-end="" d="M1092,339.5, 1272,519.5"></path><path class="link" style="stroke-width: 0.5px; stroke-opacity: 1; stroke: rgb(172, 172, 172); fill: none;" marker-end="" d="M1092,379.5, 1272,519.5"></path><path class="link" style="stroke-width: 0.5px; stroke-opacity: 1; stroke: rgb(172, 172, 172); fill: none;" marker-end="" d="M1092,419.5, 1272,519.5"></path><path class="link" style="stroke-width: 0.5px; stroke-opacity: 1; stroke: rgb(172, 172, 172); fill: none;" marker-end="" d="M1092,459.5, 1272,519.5"></path><path class="link" style="stroke-width: 0.5px; stroke-opacity: 1; stroke: rgb(172, 172, 172); fill: none;" marker-end="" d="M1092,499.5, 1272,519.5"></path><path class="link" style="stroke-width: 0.5px; stroke-opacity: 1; stroke: rgb(172, 172, 172); fill: none;" marker-end="" d="M1092,539.5, 1272,519.5"></path><path class="link" style="stroke-width: 0.5px; stroke-opacity: 1; stroke: rgb(172, 172, 172); fill: none;" marker-end="" d="M1092,579.5, 1272,519.5"></path><path class="link" style="stroke-width: 0.5px; stroke-opacity: 1; stroke: rgb(172, 172, 172); fill: none;" marker-end="" d="M1092,619.5, 1272,519.5"></path><path class="link" style="stroke-width: 0.5px; stroke-opacity: 1; stroke: rgb(172, 172, 172); fill: none;" marker-end="" d="M1092,659.5, 1272,519.5"></path><path class="link" style="stroke-width: 0.5px; stroke-opacity: 1; stroke: rgb(172, 172, 172); fill: none;" marker-end="" d="M1092,699.5, 1272,519.5"></path><path class="link" style="stroke-width: 0.5px; stroke-opacity: 1; stroke: rgb(172, 172, 172); fill: none;" marker-end="" d="M1092,339.5, 1272,559.5"></path><path class="link" style="stroke-width: 0.5px; stroke-opacity: 1; stroke: rgb(172, 172, 172); fill: none;" marker-end="" d="M1092,379.5, 1272,559.5"></path><path class="link" style="stroke-width: 0.5px; stroke-opacity: 1; stroke: rgb(172, 172, 172); fill: none;" marker-end="" d="M1092,419.5, 1272,559.5"></path><path class="link" style="stroke-width: 0.5px; stroke-opacity: 1; stroke: rgb(172, 172, 172); fill: none;" marker-end="" d="M1092,459.5, 1272,559.5"></path><path class="link" style="stroke-width: 0.5px; stroke-opacity: 1; stroke: rgb(172, 172, 172); fill: none;" marker-end="" d="M1092,499.5, 1272,559.5"></path><path class="link" style="stroke-width: 0.5px; stroke-opacity: 1; stroke: rgb(172, 172, 172); fill: none;" marker-end="" d="M1092,539.5, 1272,559.5"></path><path class="link" style="stroke-width: 0.5px; stroke-opacity: 1; stroke: rgb(172, 172, 172); fill: none;" marker-end="" d="M1092,579.5, 1272,559.5"></path><path class="link" style="stroke-width: 0.5px; stroke-opacity: 1; stroke: rgb(172, 172, 172); fill: none;" marker-end="" d="M1092,619.5, 1272,559.5"></path><path class="link" style="stroke-width: 0.5px; stroke-opacity: 1; stroke: rgb(172, 172, 172); fill: none;" marker-end="" d="M1092,659.5, 1272,559.5"></path><path class="link" style="stroke-width: 0.5px; stroke-opacity: 1; stroke: rgb(172, 172, 172); fill: none;" marker-end="" d="M1092,699.5, 1272,559.5"></path><circle r="10" class="node" id="0_0" style="fill: rgb(138, 164, 192); stroke: rgb(51, 51, 51);" cx="912" cy="219.5"></circle><circle r="10" class="node" id="0_1" style="fill: rgb(138, 164, 192); stroke: rgb(51, 51, 51);" cx="912" cy="259.5"></circle><circle r="10" class="node" id="0_2" style="fill: rgb(138, 164, 192); stroke: rgb(51, 51, 51);" cx="912" cy="299.5"></circle><circle r="10" class="node" id="0_3" style="fill: rgb(138, 164, 192); stroke: rgb(51, 51, 51);" cx="912" cy="339.5"></circle><circle r="10" class="node" id="0_4" style="fill: rgb(138, 164, 192); stroke: rgb(51, 51, 51);" cx="912" cy="379.5"></circle><circle r="10" class="node" id="0_5" style="fill: rgb(138, 164, 192); stroke: rgb(51, 51, 51);" cx="912" cy="419.5"></circle><circle r="10" class="node" id="0_6" style="fill: rgb(138, 164, 192); stroke: rgb(51, 51, 51);" cx="912" cy="459.5"></circle><circle r="10" class="node" id="0_7" style="fill: rgb(138, 164, 192); stroke: rgb(51, 51, 51);" cx="912" cy="499.5"></circle><circle r="10" class="node" id="0_8" style="fill: rgb(138, 164, 192); stroke: rgb(51, 51, 51);" cx="912" cy="539.5"></circle><circle r="10" class="node" id="0_9" style="fill: rgb(138, 164, 192); stroke: rgb(51, 51, 51);" cx="912" cy="579.5"></circle><circle r="10" class="node" id="0_10" style="fill: rgb(138, 164, 192); stroke: rgb(51, 51, 51);" cx="912" cy="619.5"></circle><circle r="10" class="node" id="0_11" style="fill: rgb(138, 164, 192); stroke: rgb(51, 51, 51);" cx="912" cy="659.5"></circle><circle r="10" class="node" id="0_12" style="fill: rgb(138, 164, 192); stroke: rgb(51, 51, 51);" cx="912" cy="699.5"></circle><circle r="10" class="node" id="0_13" style="fill: rgb(138, 164, 192); stroke: rgb(51, 51, 51);" cx="912" cy="739.5"></circle><circle r="10" class="node" id="0_14" style="fill: rgb(138, 164, 192); stroke: rgb(51, 51, 51);" cx="912" cy="779.5"></circle><circle r="10" class="node" id="0_15" style="fill: rgb(138, 164, 192); stroke: rgb(51, 51, 51);" cx="912" cy="819.5"></circle><circle r="10" class="node" id="1_0" style="fill: rgb(138, 164, 192); stroke: rgb(51, 51, 51);" cx="1092" cy="339.5"></circle><circle r="10" class="node" id="1_1" style="fill: rgb(138, 164, 192); stroke: rgb(51, 51, 51);" cx="1092" cy="379.5"></circle><circle r="10" class="node" id="1_2" style="fill: rgb(138, 164, 192); stroke: rgb(51, 51, 51);" cx="1092" cy="419.5"></circle><circle r="10" class="node" id="1_3" style="fill: rgb(138, 164, 192); stroke: rgb(51, 51, 51);" cx="1092" cy="459.5"></circle><circle r="10" class="node" id="1_4" style="fill: rgb(138, 164, 192); stroke: rgb(51, 51, 51);" cx="1092" cy="499.5"></circle><circle r="10" class="node" id="1_5" style="fill: rgb(138, 164, 192); stroke: rgb(51, 51, 51);" cx="1092" cy="539.5"></circle><circle r="10" class="node" id="1_6" style="fill: rgb(138, 164, 192); stroke: rgb(51, 51, 51);" cx="1092" cy="579.5"></circle><circle r="10" class="node" id="1_7" style="fill: rgb(138, 164, 192); stroke: rgb(51, 51, 51);" cx="1092" cy="619.5"></circle><circle r="10" class="node" id="1_8" style="fill: rgb(138, 164, 192); stroke: rgb(51, 51, 51);" cx="1092" cy="659.5"></circle><circle r="10" class="node" id="1_9" style="fill: rgb(138, 164, 192); stroke: rgb(51, 51, 51);" cx="1092" cy="699.5"></circle><circle r="10" class="node" id="2_0" style="fill: rgb(138, 164, 192); stroke: rgb(51, 51, 51);" cx="1272" cy="479.5"></circle><text class="text" dy=".35em" style="font-size: 12px;" x="877" y="859.5"></text><text class="text" dy=".35em" style="font-size: 12px;" x="1057" y="859.5"></text><text class="text" dy=".35em" style="font-size: 12px;" x="1237" y="859.5"></text><circle r="10" class="node" id="2_1" style="fill: rgb(138, 164, 192); stroke: rgb(51, 51, 51);" cx="1272" cy="519.5"></circle><circle r="10" class="node" id="2_2" style="fill: rgb(138, 164, 192); stroke: rgb(51, 51, 51);" cx="1272" cy="559.5"></circle></g><defs><marker id="arrow" viewBox="0 -5 10 10" markerWidth="7" markerHeight="7" orient="auto" refX="40"><path d="M0,-5L10,0L0,5" style="stroke: rgb(80, 80, 80); fill: none;"></path></marker></defs></svg>